<?xml version="1.0" standalone="no"?>
<!DOCTYPE svg PUBLIC "-//W3C//DTD SVG 20010904//EN"
 "http://www.w3.org/TR/2001/REC-SVG-20010904/DTD/svg10.dtd">
<svg version="1.0" xmlns="http://www.w3.org/2000/svg"
 width="348.000000pt" height="348.000000pt" viewBox="0 0 348.000000 348.000000"
 preserveAspectRatio="xMidYMid meet">

<g transform="translate(0.000000,348.000000) scale(0.100000,-0.100000)"
fill="#000000" stroke="none">
<path d="M2095 3170 c-20 -8 -84 -70 -72 -70 3 0 15 10 27 22 l20 22 1 -40 c1
-21 3 -31 6 -21 5 18 18 23 28 8 3 -5 -3 -17 -12 -27 -10 -10 -17 -19 -15 -21
1 -2 2 -9 1 -15 -1 -7 -5 -2 -9 12 l-8 25 -3 -27 c-1 -16 -2 -34 -3 -40 -1 -7
-4 -15 -7 -18 -3 -3 -10 -18 -16 -35 -6 -16 -40 -72 -77 -124 -36 -52 -64 -96
-62 -98 7 -8 146 9 146 17 0 5 -9 37 -20 71 -10 35 -18 64 -16 66 6 6 125 -70
160 -102 33 -30 46 -34 46 -14 0 5 -19 18 -42 30 -39 20 -41 22 -23 35 27 20
35 18 48 -16 6 -16 14 -30 18 -30 3 0 14 16 25 35 14 27 23 33 38 29 11 -4 16
-2 12 4 -3 6 -2 13 4 17 5 3 10 20 10 37 0 17 5 47 11 67 8 27 7 45 -4 76
l-14 39 -37 -56 -37 -56 32 -51 c31 -52 33 -75 4 -51 -13 11 -16 11 -13 -1 2
-10 -8 -15 -32 -17 l-35 -2 24 20 c13 11 22 22 20 23 -23 18 -68 47 -73 47 -3
0 2 -16 10 -36 8 -20 13 -38 10 -41 -3 -3 -26 7 -51 21 -29 17 -53 25 -65 21
-11 -4 -20 -2 -20 4 0 6 9 11 20 11 33 0 81 29 130 78 36 35 38 40 13 23 -17
-11 -36 -21 -41 -21 -6 0 -16 25 -22 55 -10 50 -10 59 9 90 l20 35 -22 -1
c-12 0 -31 -4 -42 -9z m33 -25 c-10 -22 -13 -23 -20 -10 -11 18 -2 35 17 35
12 0 12 -5 3 -25z"/>
<path d="M2220 3110 c-33 -7 -31 -7 18 -9 29 0 52 3 52 9 0 11 -17 11 -70 0z"/>
<path d="M1390 3015 c0 -2 27 -44 60 -92 55 -79 66 -90 121 -115 34 -15 80
-29 102 -30 l41 -3 14 74 15 73 61 -5 61 -5 -50 9 c-59 11 -92 21 -200 59 -70
24 -225 49 -225 35z m265 -60 c39 -13 70 -27 69 -31 -1 -11 -95 -124 -103
-124 -5 0 -18 33 -30 74 -11 41 -24 82 -27 90 -8 22 9 20 91 -9z"/>
<path d="M1296 2893 c-13 -21 -21 -42 -18 -47 2 -5 11 6 18 24 13 29 16 31 32
19 15 -13 16 -12 3 4 -28 36 0 28 57 -17 51 -41 102 -60 102 -38 0 7 -152 92
-164 92 -3 0 -16 -17 -30 -37z"/>
<path d="M1870 2900 c0 -5 7 -6 17 -3 21 8 14 -3 -55 -89 -32 -40 -59 -65 -66
-61 -6 3 -8 3 -4 -2 4 -4 0 -14 -10 -21 -15 -11 -18 -9 -23 14 -5 19 -7 10 -8
-29 0 -30 -6 -82 -11 -115 -19 -112 -20 -120 -11 -104 5 8 12 43 16 78 4 34
10 64 15 67 9 5 51 -155 44 -167 -3 -4 0 -8 7 -8 6 0 9 -8 6 -20 -3 -11 -2
-20 3 -20 4 0 10 -10 13 -22 5 -16 -7 -9 -46 28 l-51 49 54 -62 55 -62 97 2
c54 0 100 -2 103 -5 5 -5 -299 -88 -324 -88 -10 0 -11 24 -6 108 4 59 4 105 1
102 -5 -6 -76 -221 -76 -232 0 -12 28 -9 49 4 16 10 32 4 105 -42 47 -30 84
-55 82 -57 -1 -2 -47 15 -101 37 -54 22 -100 38 -103 36 -2 -3 15 -30 38 -62
l43 -57 -32 5 c-17 2 -31 0 -31 -5 0 -5 -13 -7 -30 -5 -16 3 -30 1 -30 -3 0
-10 41 -17 156 -24 l91 -6 12 29 c7 16 30 46 51 67 22 21 37 42 34 47 -3 5 -1
7 3 6 13 -4 195 164 187 171 -4 3 -9 0 -11 -7 -4 -10 -8 -10 -19 -1 -13 11
-17 6 -13 -17 2 -9 -83 -94 -105 -106 -14 -7 -8 6 18 41 l37 53 -31 75 c-17
41 -29 77 -26 80 2 3 32 7 65 10 41 4 61 10 61 19 0 22 -31 149 -38 156 -4 4
-52 14 -107 23 -96 14 -175 32 -175 39 0 2 23 19 51 37 51 32 69 60 69 105 0
17 -5 24 -20 24 -11 0 -20 -4 -20 -10z m24 -232 c-3 -4 -1 -8 4 -8 12 0 33
-56 25 -64 -4 -3 -2 -6 4 -6 6 0 18 -21 28 -46 16 -43 16 -46 -1 -65 -9 -10
-23 -19 -31 -19 -7 0 -13 -5 -13 -11 0 -5 -5 -7 -12 -3 -6 4 -8 3 -5 -3 7 -12
-28 -44 -39 -35 -4 4 -4 2 -1 -4 4 -6 -2 -19 -13 -29 -22 -20 -24 -41 15 174
14 74 25 139 25 145 0 6 4 4 9 -4 6 -8 7 -18 5 -22z"/>
<path d="M2310 2879 c0 -5 5 -7 10 -4 6 3 10 8 10 11 0 2 -4 4 -10 4 -5 0 -10
-5 -10 -11z"/>
<path d="M1829 2863 c-13 -17 -13 -17 6 -3 11 8 22 16 24 17 2 2 0 3 -6 3 -6
0 -17 -8 -24 -17z"/>
<path d="M2516 2865 c-7 -20 6 -39 22 -34 7 3 6 13 -2 28 -12 21 -14 22 -20 6z"/>
<path d="M1759 2813 c-13 -16 -12 -17 4 -4 9 7 17 15 17 17 0 8 -8 3 -21 -13z"/>
<path d="M2255 2820 c3 -5 11 -10 16 -10 6 0 7 5 4 10 -3 6 -11 10 -16 10 -6
0 -7 -4 -4 -10z"/>
<path d="M2581 2823 c0 -5 4 -17 9 -28 8 -18 9 -17 9 8 1 15 -3 27 -9 27 -5 0
-10 -3 -9 -7z"/>
<path d="M1350 2804 c0 -2 9 -8 20 -14 15 -8 18 -8 14 3 -4 11 -34 21 -34 11z"/>
<path d="M2516 2765 c-32 -42 -46 -44 -47 -7 0 18 -5 8 -14 -28 -13 -53 -12
-57 13 -101 20 -36 30 -45 49 -43 15 1 23 -3 23 -12 0 -22 -71 -174 -81 -174
-5 0 -8 -3 -7 -7 4 -13 -24 -73 -33 -73 -5 0 -9 3 -9 8 0 4 -10 13 -22 21 -21
13 -21 13 -15 -60 4 -41 9 -87 12 -103 4 -18 1 -32 -7 -37 -10 -7 -10 -9 0 -9
7 0 34 33 60 73 42 64 51 88 81 222 24 101 42 160 58 181 33 44 54 122 44 159
l-8 30 -7 -32 c-4 -17 -13 -34 -21 -37 -7 -2 -15 -15 -17 -28 -2 -15 -10 -23
-23 -23 -29 0 -45 -13 -45 -38 0 -18 -2 -19 -10 -7 -5 8 -10 30 -10 48 0 32 1
33 35 31 47 -5 63 13 37 39 -15 15 -17 23 -9 31 6 6 8 11 5 11 -3 0 -18 -16
-32 -35z m69 -105 c5 -8 -63 -50 -81 -50 -4 0 5 14 21 30 29 31 49 37 60 20z"/>
<path d="M1245 2778 c-2 -7 -18 -51 -36 -98 -64 -176 -62 -165 -48 -256 7 -46
14 -84 16 -84 2 0 22 10 43 23 42 23 46 32 30 57 -8 12 -10 11 -10 -7 0 -12
-4 -24 -9 -27 -5 -3 -8 22 -7 57 1 57 -1 62 -19 60 -43 -6 -45 9 -12 102 26
76 32 86 38 65 6 -20 7 -17 7 15 0 22 4 55 10 73 10 29 7 48 -3 20z"/>
<path d="M2230 2775 c-10 -12 -10 -15 3 -15 8 0 17 7 21 15 3 8 2 15 -3 15 -5
0 -14 -7 -21 -15z"/>
<path d="M2556 2782 c-3 -6 1 -13 10 -16 23 -9 28 -2 10 13 -8 7 -17 8 -20 3z"/>
<path d="M1347 2702 c-34 -35 -49 -61 -28 -47 11 6 74 85 69 85 -2 0 -21 -17
-41 -38z"/>
<path d="M2198 2572 c-36 -50 -67 -89 -70 -87 -3 3 -5 -1 -5 -7 0 -7 -2 -18
-4 -24 -9 -26 210 -329 225 -313 4 4 20 201 18 229 0 8 -15 49 -33 90 -18 41
-40 104 -49 140 l-16 64 -66 -92z"/>
<path d="M1223 2565 c0 -22 2 -30 4 -17 2 12 2 30 0 40 -3 9 -5 -1 -4 -23z"/>
<path d="M1058 2370 c-3 -22 -1 -30 10 -30 9 0 25 -8 36 -17 20 -17 20 -17 7
0 -12 15 -10 17 20 17 l33 0 -47 30 c-26 17 -49 30 -51 30 -2 0 -6 -13 -8 -30z"/>
<path d="M2055 2360 c-3 -5 -1 -10 4 -10 6 0 11 5 11 10 0 6 -2 10 -4 10 -3 0
-8 -4 -11 -10z"/>
<path d="M1220 2323 c0 -18 4 -33 9 -33 18 0 19 15 5 40 l-13 25 -1 -32z"/>
<path d="M1126 2261 c-4 -7 -5 -15 -2 -18 9 -9 19 4 14 18 -4 11 -6 11 -12 0z"/>
<path d="M1555 2168 c-96 -68 -103 -75 -136 -140 -21 -42 -26 -59 -16 -64 6
-4 9 -4 5 1 -9 10 29 85 43 85 6 0 9 -7 5 -15 -3 -8 -1 -15 4 -15 6 0 10 -9
10 -19 0 -11 6 -22 13 -24 9 -4 9 -6 0 -6 -9 -1 -8 -8 2 -28 16 -30 13 -41 -8
-27 -7 5 -2 -1 12 -13 30 -26 27 -30 -51 -70 l-56 -29 151 -39 c84 -21 161
-40 172 -43 11 -3 -26 30 -82 71 -57 42 -103 82 -103 89 0 24 53 167 61 163 4
-3 5 4 2 15 -4 16 -15 20 -67 22 l-61 3 74 24 c65 21 75 27 88 58 8 19 13 38
11 43 -2 4 -34 -15 -73 -42z"/>
<path d="M1756 2005 c-55 -31 -102 -57 -104 -60 -2 -2 15 -53 39 -112 24 -59
42 -112 41 -117 -3 -9 151 -1 232 11 l39 6 -29 15 c-16 8 -59 32 -95 53 l-66
38 13 78 c8 43 15 88 17 101 2 12 6 24 11 25 4 1 42 -68 84 -153 l77 -155 68
-1 67 0 -65 3 c-36 2 -65 7 -65 11 1 4 13 30 28 59 l27 52 73 -67 c40 -37 72
-70 72 -73 0 -3 -35 -16 -77 -29 -43 -13 -79 -24 -80 -25 -1 0 5 -61 13 -135
7 -74 14 -139 15 -145 0 -5 24 51 54 125 l53 135 34 0 c18 0 65 -4 103 -7 l70
-7 -85 44 c-97 50 -90 53 64 30 55 -8 107 -15 116 -15 9 0 25 19 37 44 l22 44
-37 51 c-20 28 -41 51 -45 51 -4 0 -85 27 -178 60 -94 33 -223 71 -287 85 -64
14 -126 27 -137 30 -13 2 -59 -17 -119 -50z m452 -322 c-2 -13 -15 -18 -48
-19 l-45 -2 40 19 c50 23 57 23 53 2z"/>
<path d="M1420 1956 c0 -2 8 -10 18 -17 15 -13 16 -12 3 4 -13 16 -21 21 -21
13z"/>
<path d="M1377 1783 c-2 -4 -8 -98 -11 -208 -4 -110 -9 -226 -12 -257 -3 -32
-3 -58 0 -58 2 0 59 61 126 135 l122 136 -103 122 c-56 67 -105 126 -109 130
-4 5 -10 5 -13 0z"/>
<path d="M1913 1394 c-46 -57 -78 -106 -73 -109 6 -3 10 -1 10 5 0 11 117 160
126 160 2 0 -2 -16 -10 -35 -9 -20 -15 -38 -15 -40 2 -15 -26 -105 -32 -105
-4 0 -7 -6 -6 -12 1 -43 -3 -51 -20 -37 -15 13 -15 12 -4 -10 12 -22 11 -23
-5 -19 -11 3 -36 13 -56 22 -22 9 -38 12 -38 6 0 -5 5 -10 10 -10 28 0 80 -48
95 -87 24 -63 35 -61 18 4 l-14 56 32 46 c27 39 35 63 50 156 9 61 16 111 15
111 0 1 -38 -45 -83 -102z"/>
<path d="M1157 1303 c13 -2 24 -13 26 -26 l4 -22 2 23 c2 34 16 27 51 -28 18
-27 36 -50 40 -50 5 0 21 10 36 23 l27 23 -72 32 c-39 18 -86 31 -104 31 -22
-1 -25 -3 -10 -6z"/>
<path d="M975 1291 c11 -5 40 -5 65 -1 43 7 43 8 -20 8 -42 1 -58 -2 -45 -7z"/>
<path d="M1173 1208 c-3 -36 -5 -39 -29 -40 -20 -1 -173 19 -210 27 -18 4 -24
-6 -47 -82 -15 -47 -26 -87 -24 -90 3 -2 74 28 160 67 147 68 155 73 160 103
3 18 2 35 -2 39 -3 4 -7 -7 -8 -24z"/>
<path d="M1724 1208 l-35 -33 30 -66 c27 -60 38 -72 110 -123 69 -48 132 -75
178 -76 7 0 -6 29 -29 65 l-41 65 -84 -1 c-46 -1 -87 2 -90 5 -4 4 17 30 45
59 55 56 61 67 37 67 -8 0 -15 4 -15 9 0 4 -27 7 -60 5 l-61 -2 28 21 c15 12
31 21 35 20 5 -2 8 2 8 7 0 18 -20 10 -56 -22z"/>
<path d="M782 1146 c-58 -75 -55 -80 13 -19 12 10 15 14 8 9 -23 -15 -14 7 14
36 15 15 22 28 17 28 -5 0 -28 -24 -52 -54z"/>
<path d="M849 1169 l-24 -20 30 17 c39 24 40 24 28 24 -6 0 -21 -9 -34 -21z"/>
<path d="M675 1027 c-17 -12 -40 -29 -52 -37 -16 -12 -23 -31 -27 -73 -4 -31
-4 -57 -2 -57 3 0 37 31 76 69 43 41 67 71 61 75 -6 4 -11 3 -11 -3 0 -8 -31
-9 -60 -2 -3 1 9 12 25 26 37 30 31 32 -10 2z m-15 -37 c0 -5 -8 -10 -17 -10
-15 0 -16 2 -3 10 19 12 20 12 20 0z"/>
<path d="M515 950 c-3 -5 -1 -10 4 -10 8 0 7 -7 -1 -19 -7 -11 -16 -17 -22
-14 -5 4 -6 1 -1 -7 6 -10 11 -9 22 6 29 39 35 54 19 54 -8 0 -18 -4 -21 -10z"/>
<path d="M396 928 c-11 -19 -12 -34 -4 -80 l10 -58 33 26 34 25 -24 47 c-26
50 -18 66 18 36 l22 -19 -19 23 c-11 12 -27 22 -37 22 -10 0 -25 -10 -33 -22z
m10 -35 c-10 -10 -19 5 -10 18 6 11 8 11 12 0 2 -7 1 -15 -2 -18z"/>
<path d="M550 846 c23 -22 40 -25 40 -7 0 8 -44 31 -58 31 -4 0 5 -11 18 -24z"/>
<path d="M412 724 c2 -56 2 -57 5 -12 3 39 7 46 21 41 18 -7 17 -5 -10 16 -17
12 -18 9 -16 -45z"/>
<path d="M495 730 c3 -6 1 -10 -4 -10 -6 0 -11 -5 -11 -11 0 -8 4 -9 13 0 8 6
17 8 20 4 4 -3 7 -2 7 4 0 6 -7 14 -16 17 -8 3 -12 2 -9 -4z"/>
<path d="M509 628 c0 -7 -2 -25 -3 -40 -1 -16 2 -28 6 -28 4 0 8 18 8 40 0 22
-2 40 -5 40 -3 0 -5 -6 -6 -12z"/>
<path d="M411 517 l-25 -32 30 27 29 26 100 -14 c55 -8 114 -16 130 -19 17 -2
57 -7 90 -11 33 -3 63 -8 68 -11 4 -2 7 0 7 4 0 5 -80 19 -177 32 -98 12 -189
25 -203 27 -19 3 -31 -4 -49 -29z"/>
<path d="M2610 548 c3 -3 133 -63 290 -134 l284 -129 -54 -7 c-30 -3 -161 -11
-290 -17 -129 -7 -275 -14 -325 -16 -157 -9 -266 -15 -395 -21 -69 -3 -131 -7
-138 -10 -7 -2 -20 1 -30 6 -22 13 -579 201 -613 207 -24 5 -28 -1 -65 -89
l-40 -93 -44 -8 c-38 -6 -656 -74 -960 -106 -52 -5 553 -9 1550 -10 l1636 -1
-4 34 c-4 32 -8 35 -108 76 -57 23 -102 46 -99 50 4 7 169 36 193 33 8 0 12
18 12 63 0 58 -2 64 -22 69 -22 4 -464 64 -643 86 -44 5 -93 12 -110 15 -16 4
-28 4 -25 2z"/>
<path d="M2158 503 c7 -3 16 -2 19 1 4 3 -2 6 -13 5 -11 0 -14 -3 -6 -6z"/>
<path d="M2008 493 c7 -3 16 -2 19 1 4 3 -2 6 -13 5 -11 0 -14 -3 -6 -6z"/>
<path d="M851 486 c3 -3 26 -9 50 -12 62 -7 100 -13 127 -18 12 -3 22 -1 22 3
0 5 -26 12 -57 15 -32 4 -78 9 -103 13 -25 3 -42 3 -39 -1z"/>
<path d="M1938 483 c7 -3 16 -2 19 1 4 3 -2 6 -13 5 -11 0 -14 -3 -6 -6z"/>
<path d="M364 458 l-19 -23 23 19 c21 18 27 26 19 26 -2 0 -12 -10 -23 -22z"/>
<path d="M1145 444 c50 -7 98 -15 108 -18 9 -2 17 -1 17 3 0 9 -149 32 -190
30 -14 0 16 -7 65 -15z"/>
<path d="M329 413 c-13 -16 -12 -17 4 -4 16 13 21 21 13 21 -2 0 -10 -8 -17
-17z"/>
<path d="M294 368 l-19 -23 23 19 c21 18 27 26 19 26 -2 0 -12 -10 -23 -22z"/>
<path d="M108 123 c6 -2 18 -2 25 0 6 3 1 5 -13 5 -14 0 -19 -2 -12 -5z"/>
</g>
</svg>
